<svg xmlns="http://www.w3.org/2000/svg" viewBox="0 0 820 408" font-family="'SF Mono', 'Fira Code', 'JetBrains Mono', monospace" font-size="13">
  <rect width="820" height="408" fill="#ffffff"/>

  <!-- Title -->
  <text x="55" y="40" fill="#9b59b6" font-size="13">.agentpack content types</text>
  <text x="418" y="40" fill="#8890a8" font-size="13">Supported agents</text>

  <!-- Archive box -->
  <rect x="50" y="55" width="200" height="320" fill="none" stroke="#9b59b6" stroke-width="3" opacity="0.4"/>

  <!-- Top-right corner glitch — purple on white -->
  <rect x="246" y="51" width="4" height="4" fill="#9b59b6" opacity="0.6"/>
  <rect x="246" y="59" width="4" height="4" fill="#9b59b6" opacity="0.6"/>
  <rect x="246" y="67" width="4" height="4" fill="#9b59b6" opacity="0.6"/>
  <rect x="246" y="75" width="4" height="4" fill="#9b59b6" opacity="0.5"/>

  <rect x="254" y="51" width="4" height="4" fill="#9b59b6" opacity="0.55"/>
  <rect x="254" y="59" width="4" height="4" fill="#9b59b6" opacity="0.5"/>
  <rect x="254" y="67" width="4" height="4" fill="#9b59b6" opacity="0.45"/>

  <rect x="262" y="51" width="4" height="4" fill="#9b59b6" opacity="0.5"/>
  <rect x="262" y="59" width="4" height="4" fill="#9b59b6" opacity="0.45"/>

  <rect x="270" y="51" width="4" height="4" fill="#9b59b6" opacity="0.4"/>

  <rect x="250" y="55" width="2" height="2" fill="#9b59b6" opacity="0.3"/>
  <rect x="250" y="63" width="2" height="2" fill="#9b59b6" opacity="0.25"/>
  <rect x="250" y="71" width="2" height="2" fill="#9b59b6" opacity="0.2"/>
  <rect x="258" y="55" width="2" height="2" fill="#9b59b6" opacity="0.25"/>
  <rect x="258" y="63" width="2" height="2" fill="#9b59b6" opacity="0.2"/>
  <rect x="266" y="55" width="2" height="2" fill="#9b59b6" opacity="0.2"/>

  <!-- Bottom-left corner glitch — gray on white -->
  <rect x="46" y="351" width="4" height="4" fill="#aaaaaa" opacity="0.6"/>
  <rect x="38" y="351" width="4" height="4" fill="#aaaaaa" opacity="0.6"/>
  <rect x="30" y="351" width="4" height="4" fill="#aaaaaa" opacity="0.6"/>
  <rect x="22" y="351" width="4" height="4" fill="#aaaaaa" opacity="0.5"/>

  <rect x="46" y="359" width="4" height="4" fill="#aaaaaa" opacity="0.55"/>
  <rect x="38" y="359" width="4" height="4" fill="#aaaaaa" opacity="0.5"/>
  <rect x="30" y="359" width="4" height="4" fill="#aaaaaa" opacity="0.45"/>

  <rect x="46" y="367" width="4" height="4" fill="#aaaaaa" opacity="0.5"/>
  <rect x="38" y="367" width="4" height="4" fill="#aaaaaa" opacity="0.45"/>

  <rect x="46" y="375" width="4" height="4" fill="#aaaaaa" opacity="0.4"/>

  <rect x="42" y="355" width="2" height="2" fill="#aaaaaa" opacity="0.3"/>
  <rect x="34" y="355" width="2" height="2" fill="#aaaaaa" opacity="0.25"/>
  <rect x="26" y="355" width="2" height="2" fill="#aaaaaa" opacity="0.2"/>
  <rect x="42" y="363" width="2" height="2" fill="#aaaaaa" opacity="0.25"/>
  <rect x="34" y="363" width="2" height="2" fill="#aaaaaa" opacity="0.2"/>
  <rect x="42" y="371" width="2" height="2" fill="#aaaaaa" opacity="0.2"/>

  <text x="68" y="82" fill="#8890a8" font-size="11">metadata.yaml</text>

  <!-- SKILL — darker green for white bg -->
  <text x="68" y="118" fill="#1a9a4a" font-weight="bold" font-size="14">skill</text>
  <line x1="250" y1="114" x2="400" y2="114" stroke="#1a9a4a" stroke-width="2"/>
  <rect x="400" y="110" width="4" height="8" fill="#1a9a4a"/>
  <rect x="404" y="112" width="4" height="4" fill="#1a9a4a"/>
  <text x="418" y="118" fill="#1a9a4a" font-weight="bold">All 50+ agents</text>

  <!-- COMMAND — darker cyan -->
  <text x="68" y="163" fill="#0094b3" font-weight="bold" font-size="14">command</text>
  <line x1="250" y1="159" x2="400" y2="159" stroke="#0094b3" stroke-width="2"/>
  <rect x="400" y="155" width="4" height="8" fill="#0094b3"/>
  <rect x="404" y="157" width="4" height="4" fill="#0094b3"/>
  <text x="418" y="163" fill="#0094b3" font-weight="bold">Claude Code</text>

  <!-- AGENT — purple -->
  <text x="68" y="208" fill="#9b59b6" font-weight="bold" font-size="14">agent</text>
  <line x1="250" y1="204" x2="400" y2="204" stroke="#9b59b6" stroke-width="2"/>
  <rect x="400" y="200" width="4" height="8" fill="#9b59b6"/>
  <rect x="404" y="202" width="4" height="4" fill="#9b59b6"/>
  <text x="418" y="208" fill="#9b59b6" font-weight="bold">Claude Code</text>

  <!-- MCP — darker orange -->
  <text x="68" y="253" fill="#c8850a" font-weight="bold" font-size="14">mcp</text>
  <line x1="250" y1="249" x2="400" y2="249" stroke="#c8850a" stroke-width="2"/>
  <rect x="400" y="245" width="4" height="8" fill="#c8850a"/>
  <rect x="404" y="247" width="4" height="4" fill="#c8850a"/>
  <text x="418" y="253" fill="#c8850a" font-weight="bold">9 agents</text>
  <text x="418" y="271" fill="#8890a8" font-size="11">Claude Code, Cursor, Copilot, Windsurf, Cline, + 4</text>

  <!-- HOOK — darker pink -->
  <text x="68" y="313" fill="#d4458a" font-weight="bold" font-size="14">hook</text>
  <line x1="250" y1="309" x2="400" y2="309" stroke="#d4458a" stroke-width="2"/>
  <rect x="400" y="305" width="4" height="8" fill="#d4458a"/>
  <rect x="404" y="307" width="4" height="4" fill="#d4458a"/>
  <text x="418" y="313" fill="#d4458a" font-weight="bold">5 agents</text>
  <text x="418" y="331" fill="#8890a8" font-size="11">Claude Code, Codex, Windsurf, Cline, Devin</text>

  <!-- CONFIG — darker blue -->
  <text x="68" y="358" fill="#4a6bc5" font-weight="bold" font-size="14">config</text>
  <line x1="250" y1="354" x2="400" y2="354" stroke="#4a6bc5" stroke-width="2"/>
  <rect x="400" y="350" width="4" height="8" fill="#4a6bc5"/>
  <rect x="404" y="352" width="4" height="4" fill="#4a6bc5"/>
  <text x="418" y="358" fill="#4a6bc5" font-weight="bold">Claude Code</text>
</svg>
